<svg version="1.1" xmlns="http://www.w3.org/2000/svg" xmlns:xlink="http://www.w3.org/1999/xlink" width="196.61673" height="36.8209" viewBox="0,0,196.61673,36.8209"><g transform="translate(-141.69163,-161.58955)"><g stroke="none" stroke-width="0" stroke-miterlimit="10"><path d="M141.69163,192.49678c0,-7.86549 0,-21.27112 0,-25.51515c0,-2.54187 3.01492,-5.39208 6.8551,-5.39208c17.56512,0 148.0102,0 181.79186,0c5.0762,0 7.96978,3.87109 7.96978,6.81632c0,7.47427 0,18.96681 0,23.18182c0,3.07976 -2.5077,6.82276 -6.94961,6.82276c-32.10709,0 -165.27104,0 -182.91404,0c-3.78771,0 -6.75308,-2.4059 -6.75308,-5.91367z" fill="#000000"/><path d="M144.67815,192.6786c0,-6.45752 0,-22.0243 0,-25.51516c0,-1.35899 1.30557,-2.66344 3.18288,-2.66344c13.02133,0 155.636,0 182.95231,0c2.90726,0 4.50852,1.38475 4.50852,3.54224c0,6.56071 0,20.26697 0,23.90909c0,1.74013 -1.30144,3.54868 -3.6881,3.54868c-25.18338,0 -171.19291,0 -183.97783,0c-1.76309,0 -2.97776,-1.07916 -2.97776,-2.8214z" fill="#ffffff"/></g></g></svg>